<?xml version="1.0" standalone="no"?>
<!DOCTYPE svg PUBLIC "-//W3C//DTD SVG 20010904//EN"
 "http://www.w3.org/TR/2001/REC-SVG-20010904/DTD/svg10.dtd">
<svg version="1.0" xmlns="http://www.w3.org/2000/svg"
 width="265.000000pt" height="265.000000pt" viewBox="0 0 265.000000 265.000000"
 preserveAspectRatio="xMidYMid meet">
<metadata>
Created by potrace 1.14, written by Peter Selinger 2001-2017
</metadata>
<g transform="translate(0.000000,265.000000) scale(0.100000,-0.100000)"
fill="#000000" stroke="none">
<path d="M1383 2248 c-29 -37 -276 -434 -276 -444 0 -8 255 -420 281 -454 2
-2 136 -5 297 -5 230 0 296 2 300 12 2 7 24 44 48 81 24 37 59 91 78 121 19
30 62 97 96 149 l61 96 -32 50 c-18 28 -83 131 -145 229 l-113 177 -293 0
c-222 0 -295 -3 -302 -12z"/>
<path d="M417 1686 c-29 -45 -71 -109 -94 -144 -24 -34 -43 -64 -43 -66 0 -3
-23 -37 -50 -78 -51 -73 -57 -100 -29 -131 11 -12 81 -124 189 -304 34 -57 63
-103 64 -104 0 0 132 -3 293 -6 l292 -5 145 221 c80 122 146 226 146 231 0 6
-25 49 -55 95 -30 47 -55 88 -55 90 0 4 -112 183 -141 227 -11 15 -19 32 -19
38 0 6 -63 10 -182 11 -101 0 -234 1 -296 3 l-113 2 -52 -80z"/>
<path d="M1336 1206 c-28 -44 -94 -148 -146 -230 l-96 -150 81 -123 c44 -67
110 -169 146 -226 l67 -104 292 0 292 0 56 88 c32 49 98 151 147 226 l90 138
-35 57 c-39 64 -160 252 -218 343 l-39 60 -293 0 -292 1 -52 -80z"/>
</g>
</svg>
